<svg xmlns="http://www.w3.org/2000/svg" xmlns:xlink="http://www.w3.org/1999/xlink" width="320" zoomAndPan="magnify" viewBox="0 0 240 239.999995" height="320" preserveAspectRatio="xMidYMid meet" version="1.0"><defs><g/></defs><g fill="#01426a" fill-opacity="1"><g transform="translate(69.817886, 128.819985)"><g><path d="M 21.59375 -15.859375 C 21.101562 -15.828125 20.742188 -15.765625 20.515625 -15.671875 C 20.296875 -15.578125 20.144531 -15.398438 20.0625 -15.140625 C 19.988281 -14.878906 19.953125 -14.457031 19.953125 -13.875 L 19.953125 -2.4375 C 19.953125 -1.851562 19.992188 -1.429688 20.078125 -1.171875 C 20.171875 -0.910156 20.320312 -0.734375 20.53125 -0.640625 C 20.75 -0.546875 21.101562 -0.488281 21.59375 -0.46875 L 21.59375 0 C 20.65625 -0.0390625 19.296875 -0.0625 17.515625 -0.0625 C 15.660156 -0.0625 14.289062 -0.0390625 13.40625 0 L 13.40625 -0.46875 C 13.96875 -0.488281 14.375 -0.546875 14.625 -0.640625 C 14.875 -0.734375 15.046875 -0.910156 15.140625 -1.171875 C 15.234375 -1.429688 15.28125 -1.851562 15.28125 -2.4375 L 15.28125 -14.21875 L 9.71875 -0.015625 L 9.359375 -0.015625 L 2.859375 -14.8125 L 2.859375 -4.515625 C 2.859375 -3.378906 2.90625 -2.5625 3 -2.0625 C 3.09375 -1.5625 3.296875 -1.195312 3.609375 -0.96875 C 3.921875 -0.738281 4.445312 -0.570312 5.1875 -0.46875 L 5.1875 0 C 4.550781 -0.0390625 3.691406 -0.0625 2.609375 -0.0625 C 1.796875 -0.0625 1.15625 -0.0390625 0.6875 0 L 0.6875 -0.46875 C 1.164062 -0.570312 1.519531 -0.734375 1.75 -0.953125 C 1.976562 -1.179688 2.128906 -1.523438 2.203125 -1.984375 C 2.285156 -2.441406 2.328125 -3.132812 2.328125 -4.0625 L 2.328125 -13.875 C 2.328125 -14.457031 2.285156 -14.878906 2.203125 -15.140625 C 2.117188 -15.398438 1.96875 -15.578125 1.75 -15.671875 C 1.53125 -15.765625 1.175781 -15.828125 0.6875 -15.859375 L 0.6875 -16.3125 C 1.15625 -16.269531 1.796875 -16.25 2.609375 -16.25 C 4.453125 -16.25 6.039062 -16.269531 7.375 -16.3125 L 11.734375 -6.515625 L 15.515625 -16.25 L 17.515625 -16.25 C 19.296875 -16.25 20.65625 -16.269531 21.59375 -16.3125 Z M 21.59375 -15.859375 "/></g></g></g><g fill="#01426a" fill-opacity="1"><g transform="translate(92.05062, 128.819985)"><g><path d="M 14.75 -1.9375 C 14.945312 -1.445312 15.164062 -1.082031 15.40625 -0.84375 C 15.644531 -0.601562 15.878906 -0.476562 16.109375 -0.46875 L 16.109375 0 C 15.003906 -0.0390625 13.609375 -0.0625 11.921875 -0.0625 C 10.160156 -0.0625 8.867188 -0.0390625 8.046875 0 L 8.046875 -0.46875 C 8.628906 -0.488281 9.039062 -0.554688 9.28125 -0.671875 C 9.53125 -0.796875 9.65625 -1.003906 9.65625 -1.296875 C 9.65625 -1.566406 9.5625 -1.929688 9.375 -2.390625 L 8.015625 -6.171875 L 3.359375 -6.171875 L 2.96875 -5.140625 C 2.46875 -3.835938 2.21875 -2.835938 2.21875 -2.140625 C 2.21875 -1.515625 2.390625 -1.082031 2.734375 -0.84375 C 3.085938 -0.613281 3.613281 -0.488281 4.3125 -0.46875 L 4.3125 0 C 3.15625 -0.0390625 2.148438 -0.0625 1.296875 -0.0625 C 0.566406 -0.0625 -0.0234375 -0.0390625 -0.484375 0 L -0.484375 -0.46875 C -0.0976562 -0.519531 0.257812 -0.753906 0.59375 -1.171875 C 0.9375 -1.585938 1.285156 -2.25 1.640625 -3.15625 L 6.75 -16.3125 C 7.238281 -16.28125 7.644531 -16.265625 7.96875 -16.265625 C 8.28125 -16.265625 8.679688 -16.28125 9.171875 -16.3125 Z M 7.859375 -6.640625 L 5.765625 -12.40625 L 3.546875 -6.640625 Z M 7.859375 -6.640625 "/></g></g></g><g fill="#01426a" fill-opacity="1"><g transform="translate(107.99368, 128.819985)"><g><path d="M 9.546875 -16.640625 C 10.460938 -16.640625 11.242188 -16.507812 11.890625 -16.25 C 12.535156 -15.988281 13.164062 -15.617188 13.78125 -15.140625 C 13.9375 -15.003906 14.082031 -14.9375 14.21875 -14.9375 C 14.53125 -14.9375 14.726562 -15.394531 14.8125 -16.3125 L 15.34375 -16.3125 C 15.28125 -15.226562 15.25 -13.3125 15.25 -10.5625 L 14.734375 -10.5625 C 14.617188 -11.789062 14.414062 -12.753906 14.125 -13.453125 C 13.832031 -14.160156 13.328125 -14.753906 12.609375 -15.234375 C 11.890625 -15.691406 11.175781 -15.921875 10.46875 -15.921875 C 8.863281 -15.921875 7.738281 -15.148438 7.09375 -13.609375 C 6.445312 -12.078125 6.125 -10.242188 6.125 -8.109375 C 6.125 -5.972656 6.445312 -4.132812 7.09375 -2.59375 C 7.738281 -1.0625 8.863281 -0.296875 10.46875 -0.296875 C 11.175781 -0.296875 11.890625 -0.523438 12.609375 -0.984375 C 13.328125 -1.429688 13.832031 -2.03125 14.125 -2.78125 C 14.414062 -3.539062 14.617188 -4.613281 14.734375 -6 L 15.25 -6 C 15.25 -3.125 15.28125 -1.125 15.34375 0 L 14.8125 0 C 14.769531 -0.488281 14.707031 -0.835938 14.625 -1.046875 C 14.539062 -1.253906 14.421875 -1.359375 14.265625 -1.359375 C 14.140625 -1.359375 13.976562 -1.296875 13.78125 -1.171875 C 13.09375 -0.679688 12.429688 -0.304688 11.796875 -0.046875 C 11.171875 0.203125 10.410156 0.328125 9.515625 0.328125 C 7.785156 0.328125 6.265625 0 4.953125 -0.65625 C 3.648438 -1.320312 2.632812 -2.28125 1.90625 -3.53125 C 1.1875 -4.789062 0.828125 -6.285156 0.828125 -8.015625 C 0.828125 -9.710938 1.195312 -11.210938 1.9375 -12.515625 C 2.675781 -13.816406 3.703125 -14.828125 5.015625 -15.546875 C 6.335938 -16.273438 7.847656 -16.640625 9.546875 -16.640625 Z M 9.546875 -16.640625 "/></g></g></g><g fill="#d44420" fill-opacity="1"><g transform="translate(124.522495, 128.819985)"><g><path d="M 9.59375 -10.640625 C 9.59375 -9.398438 8.890625 -8.3125 7.484375 -7.375 C 6.085938 -6.4375 4.492188 -5.675781 2.703125 -5.09375 C 2.523438 -4.320312 2.4375 -3.578125 2.4375 -2.859375 C 2.4375 -1.378906 2.96875 -0.640625 4.03125 -0.640625 C 5.351562 -0.640625 6.535156 -1.410156 7.578125 -2.953125 L 7.953125 -2.765625 C 7.460938 -1.921875 6.796875 -1.191406 5.953125 -0.578125 C 5.117188 0.0234375 4.238281 0.328125 3.3125 0.328125 C 2.363281 0.328125 1.617188 0.0507812 1.078125 -0.5 C 0.546875 -1.0625 0.28125 -1.867188 0.28125 -2.921875 C 0.28125 -4.085938 0.617188 -5.40625 1.296875 -6.875 C 1.984375 -8.34375 2.910156 -9.59375 4.078125 -10.625 C 5.242188 -11.65625 6.507812 -12.171875 7.875 -12.171875 C 8.375 -12.171875 8.785156 -12.039062 9.109375 -11.78125 C 9.429688 -11.519531 9.59375 -11.140625 9.59375 -10.640625 Z M 7.375 -11.734375 C 6.882812 -11.734375 6.332031 -11.441406 5.71875 -10.859375 C 5.113281 -10.285156 4.546875 -9.519531 4.015625 -8.5625 C 3.492188 -7.613281 3.09375 -6.601562 2.8125 -5.53125 C 4.269531 -6.039062 5.316406 -6.53125 5.953125 -7 C 6.515625 -7.445312 6.953125 -7.988281 7.265625 -8.625 C 7.585938 -9.269531 7.75 -9.957031 7.75 -10.6875 C 7.75 -11.101562 7.71875 -11.378906 7.65625 -11.515625 C 7.59375 -11.660156 7.5 -11.734375 7.375 -11.734375 Z M 7.375 -11.734375 "/></g></g></g><g fill="#d44420" fill-opacity="1"><g transform="translate(134.406264, 128.819985)"><g><path d="M 10.921875 -8.734375 C 10.441406 -8.960938 10.039062 -9.273438 9.71875 -9.671875 C 9.394531 -10.078125 9.234375 -10.539062 9.234375 -11.0625 C 9.234375 -11.445312 9.335938 -11.726562 9.546875 -11.90625 C 9.753906 -12.09375 9.988281 -12.1875 10.25 -12.1875 C 10.6875 -12.1875 11.007812 -11.976562 11.21875 -11.5625 C 11.4375 -11.15625 11.546875 -10.585938 11.546875 -9.859375 C 11.546875 -9.460938 11.53125 -9.15625 11.5 -8.9375 C 11.3125 -7.351562 10.90625 -5.851562 10.28125 -4.4375 C 9.664062 -3.03125 8.835938 -1.882812 7.796875 -1 C 6.765625 -0.113281 5.570312 0.328125 4.21875 0.328125 C 3.25 0.328125 2.554688 0.0507812 2.140625 -0.5 C 1.722656 -1.0625 1.539062 -1.738281 1.59375 -2.53125 C 1.6875 -3.789062 2.210938 -5.195312 3.171875 -6.75 C 4.128906 -8.300781 5.382812 -9.816406 6.9375 -11.296875 C 6.550781 -11.140625 6.113281 -10.910156 5.625 -10.609375 C 5.238281 -10.359375 4.90625 -10.164062 4.625 -10.03125 C 4.351562 -9.90625 4.109375 -9.84375 3.890625 -9.84375 C 3.722656 -9.84375 3.5625 -9.890625 3.40625 -9.984375 C 3.257812 -10.078125 3.160156 -10.128906 3.109375 -10.140625 C 2.835938 -10.328125 2.613281 -10.421875 2.4375 -10.421875 C 2.195312 -10.421875 1.992188 -10.316406 1.828125 -10.109375 C 1.671875 -9.898438 1.5 -9.523438 1.3125 -8.984375 L 1.0625 -8.140625 L 0.625 -8.140625 L 1.125 -9.8125 C 1.5625 -11.382812 2.285156 -12.171875 3.296875 -12.171875 C 3.492188 -12.171875 3.660156 -12.132812 3.796875 -12.0625 C 3.941406 -12 4.117188 -11.890625 4.328125 -11.734375 C 4.523438 -11.578125 4.703125 -11.457031 4.859375 -11.375 C 5.015625 -11.300781 5.191406 -11.265625 5.390625 -11.265625 C 6.160156 -11.265625 6.804688 -11.503906 7.328125 -11.984375 L 7.5625 -12.421875 L 8.046875 -12.1875 C 6.796875 -10.65625 5.828125 -9.128906 5.140625 -7.609375 C 4.453125 -6.085938 4.035156 -4.523438 3.890625 -2.921875 C 3.878906 -2.785156 3.875 -2.601562 3.875 -2.375 C 3.875 -1.082031 4.210938 -0.4375 4.890625 -0.4375 C 6.003906 -0.4375 7.015625 -0.90625 7.921875 -1.84375 C 8.828125 -2.78125 9.539062 -3.90625 10.0625 -5.21875 C 10.59375 -6.53125 10.878906 -7.703125 10.921875 -8.734375 Z M 10.921875 -8.734375 "/></g></g></g><g fill="#d44420" fill-opacity="1"><g transform="translate(146.686106, 128.819985)"><g><path d="M 9.59375 -10.640625 C 9.59375 -9.398438 8.890625 -8.3125 7.484375 -7.375 C 6.085938 -6.4375 4.492188 -5.675781 2.703125 -5.09375 C 2.523438 -4.320312 2.4375 -3.578125 2.4375 -2.859375 C 2.4375 -1.378906 2.96875 -0.640625 4.03125 -0.640625 C 5.351562 -0.640625 6.535156 -1.410156 7.578125 -2.953125 L 7.953125 -2.765625 C 7.460938 -1.921875 6.796875 -1.191406 5.953125 -0.578125 C 5.117188 0.0234375 4.238281 0.328125 3.3125 0.328125 C 2.363281 0.328125 1.617188 0.0507812 1.078125 -0.5 C 0.546875 -1.0625 0.28125 -1.867188 0.28125 -2.921875 C 0.28125 -4.085938 0.617188 -5.40625 1.296875 -6.875 C 1.984375 -8.34375 2.910156 -9.59375 4.078125 -10.625 C 5.242188 -11.65625 6.507812 -12.171875 7.875 -12.171875 C 8.375 -12.171875 8.785156 -12.039062 9.109375 -11.78125 C 9.429688 -11.519531 9.59375 -11.140625 9.59375 -10.640625 Z M 7.375 -11.734375 C 6.882812 -11.734375 6.332031 -11.441406 5.71875 -10.859375 C 5.113281 -10.285156 4.546875 -9.519531 4.015625 -8.5625 C 3.492188 -7.613281 3.09375 -6.601562 2.8125 -5.53125 C 4.269531 -6.039062 5.316406 -6.53125 5.953125 -7 C 6.515625 -7.445312 6.953125 -7.988281 7.265625 -8.625 C 7.585938 -9.269531 7.75 -9.957031 7.75 -10.6875 C 7.75 -11.101562 7.71875 -11.378906 7.65625 -11.515625 C 7.59375 -11.660156 7.5 -11.734375 7.375 -11.734375 Z M 7.375 -11.734375 "/></g></g></g><g fill="#d44420" fill-opacity="1"><g transform="translate(156.569875, 128.819985)"><g><path d="M 12.21875 -3.734375 L 11.640625 -2.046875 C 11.085938 -0.460938 10.15625 0.328125 8.84375 0.328125 C 8.15625 0.328125 7.671875 0.101562 7.390625 -0.34375 C 7.273438 -0.53125 7.21875 -0.785156 7.21875 -1.109375 C 7.21875 -1.523438 7.347656 -2.125 7.609375 -2.90625 L 9.796875 -9.5 C 9.953125 -10 10.03125 -10.375 10.03125 -10.625 C 10.03125 -11.164062 9.78125 -11.4375 9.28125 -11.4375 C 8.695312 -11.4375 8.03125 -11.007812 7.28125 -10.15625 C 6.539062 -9.300781 5.8125 -8.128906 5.09375 -6.640625 C 4.375 -5.148438 3.753906 -3.5 3.234375 -1.6875 L 2.8125 0 L 0.8125 0 L 3.578125 -9.890625 C 3.679688 -10.285156 3.734375 -10.566406 3.734375 -10.734375 C 3.734375 -11.117188 3.566406 -11.3125 3.234375 -11.3125 C 2.890625 -11.3125 2.585938 -11.140625 2.328125 -10.796875 C 2.066406 -10.460938 1.773438 -9.851562 1.453125 -8.96875 L 1.15625 -8.109375 L 0.71875 -8.109375 L 1.296875 -9.796875 C 1.847656 -11.378906 2.757812 -12.171875 4.03125 -12.171875 C 4.519531 -12.171875 4.867188 -12.050781 5.078125 -11.8125 C 5.285156 -11.570312 5.390625 -11.238281 5.390625 -10.8125 C 5.390625 -10.394531 5.285156 -9.769531 5.078125 -8.9375 L 4.265625 -5.78125 C 5.242188 -8.101562 6.179688 -9.75 7.078125 -10.71875 C 7.984375 -11.6875 8.972656 -12.171875 10.046875 -12.171875 C 11.296875 -12.171875 11.921875 -11.59375 11.921875 -10.4375 C 11.921875 -9.9375 11.800781 -9.351562 11.5625 -8.6875 L 9.328125 -1.953125 C 9.210938 -1.585938 9.15625 -1.296875 9.15625 -1.078125 C 9.15625 -0.710938 9.335938 -0.53125 9.703125 -0.53125 C 10.003906 -0.53125 10.296875 -0.703125 10.578125 -1.046875 C 10.867188 -1.390625 11.171875 -2 11.484375 -2.875 L 11.78125 -3.734375 Z M 12.21875 -3.734375 "/></g></g></g><g fill="#d44420" fill-opacity="1"><g transform="translate(169.932557, 128.819985)"><g><path d="M 2.78125 -1.953125 C 2.738281 -1.773438 2.71875 -1.609375 2.71875 -1.453125 C 2.71875 -1.140625 2.804688 -0.90625 2.984375 -0.75 C 3.171875 -0.601562 3.410156 -0.53125 3.703125 -0.53125 C 4.085938 -0.53125 4.445312 -0.691406 4.78125 -1.015625 C 5.113281 -1.347656 5.441406 -1.953125 5.765625 -2.828125 L 6.078125 -3.734375 L 6.515625 -3.734375 L 6.03125 -2.28125 C 5.707031 -1.332031 5.289062 -0.660156 4.78125 -0.265625 C 4.269531 0.128906 3.632812 0.328125 2.875 0.328125 C 2.1875 0.328125 1.671875 0.160156 1.328125 -0.171875 C 0.992188 -0.515625 0.828125 -0.988281 0.828125 -1.59375 C 0.828125 -1.988281 0.894531 -2.425781 1.03125 -2.90625 L 3.484375 -11.390625 L 1.40625 -11.390625 L 1.515625 -11.84375 L 3.59375 -11.84375 L 4.609375 -15.34375 C 5.441406 -15.375 6.132812 -15.484375 6.6875 -15.671875 L 5.59375 -11.84375 L 8.640625 -11.84375 L 8.578125 -11.390625 L 5.46875 -11.390625 Z M 2.78125 -1.953125 "/></g></g></g><g fill="#d44420" fill-opacity="1"><g transform="translate(177.673695, 128.819985)"><g><path d="M 1.359375 -0.34375 C 1.515625 -0.269531 1.664062 -0.21875 1.8125 -0.1875 C 1.957031 -0.15625 2.160156 -0.140625 2.421875 -0.140625 C 3.109375 -0.140625 3.664062 -0.347656 4.09375 -0.765625 C 4.53125 -1.179688 4.75 -1.765625 4.75 -2.515625 C 4.75 -3.003906 4.65625 -3.484375 4.46875 -3.953125 C 4.28125 -4.421875 3.972656 -4.953125 3.546875 -5.546875 C 3.023438 -6.253906 2.644531 -6.832031 2.40625 -7.28125 C 2.164062 -7.738281 2.046875 -8.273438 2.046875 -8.890625 C 2.046875 -9.523438 2.207031 -10.09375 2.53125 -10.59375 C 2.851562 -11.09375 3.285156 -11.476562 3.828125 -11.75 C 4.378906 -12.03125 4.976562 -12.171875 5.625 -12.171875 C 6.425781 -12.171875 7.09375 -12.019531 7.625 -11.71875 C 8.164062 -11.414062 8.4375 -10.894531 8.4375 -10.15625 C 8.4375 -9.882812 8.347656 -9.617188 8.171875 -9.359375 C 7.992188 -9.097656 7.726562 -8.96875 7.375 -8.96875 C 7.113281 -8.96875 6.894531 -9.054688 6.71875 -9.234375 C 6.539062 -9.421875 6.453125 -9.65625 6.453125 -9.9375 C 6.453125 -10.425781 6.664062 -10.941406 7.09375 -11.484375 C 6.800781 -11.660156 6.421875 -11.75 5.953125 -11.75 C 5.367188 -11.75 4.882812 -11.550781 4.5 -11.15625 C 4.125 -10.769531 3.9375 -10.238281 3.9375 -9.5625 C 3.9375 -9.164062 4.003906 -8.820312 4.140625 -8.53125 C 4.285156 -8.25 4.539062 -7.832031 4.90625 -7.28125 L 5.328125 -6.6875 C 5.785156 -5.976562 6.125 -5.367188 6.34375 -4.859375 C 6.570312 -4.359375 6.6875 -3.835938 6.6875 -3.296875 C 6.6875 -2.609375 6.503906 -1.984375 6.140625 -1.421875 C 5.773438 -0.867188 5.289062 -0.4375 4.6875 -0.125 C 4.082031 0.175781 3.425781 0.328125 2.71875 0.328125 C 1.84375 0.328125 1.101562 0.140625 0.5 -0.234375 C -0.09375 -0.617188 -0.390625 -1.191406 -0.390625 -1.953125 C -0.390625 -2.210938 -0.316406 -2.453125 -0.171875 -2.671875 C -0.0234375 -2.890625 0.195312 -3 0.5 -3 C 0.84375 -3 1.097656 -2.859375 1.265625 -2.578125 C 1.429688 -2.304688 1.515625 -1.960938 1.515625 -1.546875 C 1.515625 -1.285156 1.460938 -0.882812 1.359375 -0.34375 Z M 1.359375 -0.34375 "/></g></g></g></svg>